<svg xmlns="http://www.w3.org/2000/svg" viewBox="0 0 200 200" width="200" height="200">
  <defs>
    <linearGradient id="gcpBlue" x1="0%" y1="0%" x2="100%" y2="100%">
      <stop offset="0%" style="stop-color:#4285F4;stop-opacity:1" />
      <stop offset="100%" style="stop-color:#2C5FD9;stop-opacity:1" />
    </linearGradient>
  </defs>

  <!-- Background -->
  <rect width="200" height="200" rx="40" fill="url(#gcpBlue)" />

  <!-- Cloud Run rocket/container symbol -->
  <!-- Container base -->
  <rect x="70" y="100" width="60" height="70" rx="5" fill="#FFFFFF" opacity="0.9"/>

  <!-- Container lines (representing containerization) -->
  <line x1="75" y1="120" x2="125" y2="120" stroke="#4285F4" stroke-width="3" stroke-linecap="round"/>
  <line x1="75" y1="135" x2="125" y2="135" stroke="#4285F4" stroke-width="3" stroke-linecap="round"/>
  <line x1="75" y1="150" x2="125" y2="150" stroke="#4285F4" stroke-width="3" stroke-linecap="round"/>

  <!-- Rocket/speed element -->
  <path d="M 100 40 L 110 80 L 100 75 L 90 80 Z" fill="#FFFFFF"/>

  <!-- Flame/exhaust trails (showing "running") -->
  <path d="M 95 80 L 85 95 L 90 90 Z" fill="#FF9800" opacity="0.8"/>
  <path d="M 100 82 L 100 100 L 100 95 Z" fill="#FFB74D" opacity="0.8"/>
  <path d="M 105 80 L 115 95 L 110 90 Z" fill="#FF9800" opacity="0.8"/>

  <!-- Small stars (representing cloud/dispatch) -->
  <circle cx="50" cy="60" r="3" fill="#FFFFFF" opacity="0.7"/>
  <circle cx="150" cy="70" r="3" fill="#FFFFFF" opacity="0.7"/>
  <circle cx="40" cy="90" r="2" fill="#FFFFFF" opacity="0.6"/>
  <circle cx="160" cy="95" r="2" fill="#FFFFFF" opacity="0.6"/>
</svg>
